<?xml version="1.0" encoding="UTF-8"?>
<svg xmlns="http://www.w3.org/2000/svg" width="150" height="150" viewBox="0 0 150 150" fill="none">
  <path d="M81.1936 8.29019C84.539 9.02833 92.2805 8.29614 91.1703 13.7726C90.709 16.0555 85.789 18.9693 85.3485 20.4426C84.539 23.163 88.7475 29.1008 84.405 31.0712C80.7501 32.732 77.1487 27.8002 74.7706 27.9549C72.0323 28.1335 68.4667 33.3064 64.8087 30.7616C61.4306 28.4103 65.2225 23.0588 64.4456 20.4426C63.892 18.5854 58.5554 16.1091 58.5316 12.9541C58.4989 8.1503 65.41 9.14738 68.6006 8.29019C70.5085 5.36444 71.2019 -0.859101 75.8689 0.099283C78.4732 0.635026 79.8512 6.17699 81.1906 8.29019H81.1936ZM75.1903 4.18879C74.72 3.75126 74.6783 4.34653 74.5295 4.56976C73.3538 6.36152 72.6068 10.2635 70.7257 11.4511C68.9697 12.5613 64.8504 12.4928 62.7193 12.8023C63.5825 15.2429 67.7702 16.7371 68.294 19.2551C68.8179 21.773 67.416 25.1423 67.1779 27.6543C69.1631 26.7495 72.6782 24.1184 74.7498 24.0678C77.2618 24.0053 80.1102 26.8061 82.6222 27.3567C82.265 24.9875 81.018 21.5915 81.5031 19.258C81.896 17.371 85.3396 15.3858 86.6343 13.6982C86.8635 13.4006 87.2117 13.3202 87.0778 12.8053C83.9497 12.3142 79.7441 12.9482 77.8124 10.0403C77.0981 8.96582 75.5772 4.54892 75.1932 4.19176L75.1903 4.18879Z" fill="#19A0E6"></path>
  <path d="M45.9357 135.618C47.2274 135.618 47.8852 136.746 47.8019 137.919C47.6977 139.404 45.9059 147.232 45.3404 148.556C44.2927 151.021 41.4414 149.988 41.6468 147.556C41.7837 145.934 43.5278 138.398 44.1529 136.969C44.4892 136.199 45.0279 135.618 45.9357 135.618Z" fill="#19A0E6"></path>
  <path d="M103.862 135.618C104.766 135.618 105.305 136.202 105.644 136.969C106.269 138.395 108.014 145.934 108.15 147.556C108.356 149.988 105.504 151.021 104.457 148.556C103.894 147.232 102.126 139.449 101.989 137.925C101.885 136.758 102.597 135.618 103.862 135.618Z" fill="#19A0E6"></path>
  <path d="M53.5492 67.1204C54.3231 67.6026 55.8589 66.1531 57.3798 67.8972C57.8054 68.3854 57.8858 69.1086 58.4126 69.5312C59.3561 68.43 60.115 67.2097 60.6954 65.8763C61.3086 64.4625 61.6538 62.0309 62.2997 60.9445C63.7373 58.5188 65.8892 61.26 67.3178 62.1172C72.3746 65.1471 77.9999 64.5548 83.3723 62.7065C84.9348 62.1707 87.7534 60.2272 89.1315 61.0874C90.45 61.9118 91.0215 66.7781 91.5275 68.5074C91.9352 69.8973 92.1584 68.2603 92.4085 67.8913C93.4145 66.415 95.2836 67.2752 95.3967 67.1561C95.6765 66.8585 95.7807 59.9266 95.7063 58.9771C95.5515 57.0127 93.1109 51.6761 95.87 51.4291C97.9683 51.2386 98.0695 52.3131 98.5844 54.0215C99.5279 57.1556 99.7511 60.7748 99.5547 64.0339C99.4803 65.2661 98.6945 67.6829 98.9594 68.7306C99.0189 68.9687 99.8226 69.2485 100.156 69.6801C103.35 73.8261 102.841 79.2401 98.3493 82.1331C97.7659 82.5081 96.1855 82.9605 96.0366 83.3862C96.248 90.705 93.8133 96.991 88.2773 101.768C87.7148 102.253 85.7325 103.313 85.6492 103.444C84.8396 104.724 86.7385 109.932 88.2892 110.959C89.5006 111.763 96.6646 113.385 98.2719 113.48C98.6439 113.501 98.9058 113.575 99.263 113.352C99.6589 113.108 101.43 110.739 102.23 110.078C105.582 107.313 109.457 106.92 113.225 105.03C102.754 99.3751 101.876 84.2076 111.999 77.6656C117.353 74.2041 123.586 74.0821 129.059 77.3174C139.7 83.6064 139.093 99.2531 128.378 105.033C128.643 105.605 134.616 107.316 135.708 107.804C144.706 111.822 146.667 122.445 147.941 131.219C148.602 135.77 149.54 141.839 149.76 146.33C149.903 149.238 148.968 151.384 146.274 148.928C144.879 141.202 144.774 133.035 143.084 125.382C141.73 119.251 139.753 113.739 133.628 111.072C131.798 110.274 122.294 106.941 120.8 106.941C119.306 106.941 109.823 110.271 107.972 111.072C106.121 111.873 104.329 112.9 103.123 114.688C111.427 116.534 118.841 120.248 121.455 128.886C123.276 134.913 124.211 141.547 125.866 147.651C126.035 149.884 123.743 150.786 122.336 149.074L117.591 129.183C114.547 120.329 102.96 118.073 94.8461 116.814C93.2746 120.629 90.1286 124.129 86.1254 125.469C83.7056 126.278 81.3394 125.629 79.6935 127.972L83.1966 147.854C82.9794 150.083 80.8096 150.762 79.5209 148.839L76.0921 128.948L73.8836 128.936L70.3686 148.625C69.2286 150.786 66.8297 150.19 66.6094 147.854L70.1126 127.972C68.4667 125.629 66.1005 126.278 63.6807 125.469C59.7222 124.144 56.466 120.623 54.957 116.814C47.9001 117.84 36.7447 120.165 33.0689 127.07C30.545 134.183 29.3902 141.764 27.4674 149.074C26.0179 150.774 23.8214 149.919 23.9405 147.654C25.5804 141.547 26.5269 134.91 28.3484 128.886C30.9617 120.245 38.3787 116.531 46.6798 114.688C45.4744 112.9 43.7659 111.911 41.8313 111.072C39.8967 110.233 30.5122 106.941 29.0032 106.941C27.4942 106.941 18.0056 110.274 16.1752 111.072C3.92449 116.409 6.13592 137.005 3.76972 147.979C3.52863 149.098 2.99586 150.018 1.71901 149.949C-0.236454 149.848 -0.0281095 147.806 0.043323 146.33C0.266549 141.839 1.20112 135.773 1.86187 131.219C3.1298 122.486 5.118 111.76 14.0947 107.804C15.184 107.325 21.1605 105.596 21.4225 105.033C10.7999 99.3066 10.0736 83.8237 20.5563 77.4335C34.5571 68.8973 50.808 84.1838 42.9653 98.6548C41.1587 101.991 39.5574 102.765 36.7298 104.893C36.459 105.099 36.6197 105.188 36.8757 105.331C40.4175 107.28 43.9505 107.099 47.5697 110.084C48.3138 110.697 50.555 113.453 50.9895 113.519C54.2338 112.593 61.13 112.554 62.9723 109.45C63.4932 108.572 64.6093 104.167 64.1539 103.45C64.0706 103.319 62.0884 102.259 61.5258 101.774C55.9898 96.994 53.5552 90.7139 53.7665 83.3921C53.6206 82.9665 52.0372 82.5141 51.4539 82.1391C48.284 80.0973 46.8346 76.3977 47.9477 72.7397C48.3078 71.5552 49.8585 69.7575 49.9448 69.0699C50.0966 67.8794 49.1353 63.9089 49.0549 62.2571C48.787 56.7746 49.4478 50.6999 54.5999 47.6104C56.2547 46.6163 57.9334 46.5449 59.365 45.8395C60.1389 45.4586 60.5674 44.646 61.255 44.1668C68.2762 39.2856 75.0891 37.7885 83.5062 39.985C85.1849 40.4226 90.1464 41.6816 88.1076 44.2859C86.8963 45.8336 82.7085 43.5864 80.8513 43.2352C74.4908 42.0358 68.6185 43.4019 63.4664 47.2682C62.7074 47.8367 61.9812 49.0391 61.1538 49.4111C60.2281 49.8249 58.859 49.801 57.8054 50.2207C54.8707 51.3934 53.2694 54.1941 52.951 57.2508C52.826 58.4622 52.9569 66.7573 53.5492 67.1264V67.1204ZM64.8028 65.3822C64.3801 68.3169 60.0228 75.4482 56.4839 73.841C54.954 73.1475 55.4481 69.4836 52.7635 71.9123C50.8199 73.6684 51.0134 77.1537 53.1087 78.7044C54.454 79.6985 56.9155 79.4365 57.4482 80.6033C58.0286 81.8712 57.5464 85.4875 57.7072 87.178C59.5347 106.536 87.682 108.197 91.7477 89.2138C92.3043 86.6095 91.6495 82.6927 92.2567 80.8116C92.718 79.3889 94.0961 79.8473 95.1021 79.499C98.2957 78.3889 99.644 74.5434 97.1468 72.0939C94.98 69.9717 95.1378 71.6921 93.7597 72.8082C92.6912 73.6743 90.578 74.5375 89.3279 73.6773C88.1463 72.8648 87.3606 65.4388 86.6343 65.3912C80.6578 68.1502 73.8033 69.1354 67.5678 66.6234C66.9577 66.3793 65.1927 65.1084 64.8028 65.3852V65.3822ZM41.1616 90.958C41.1616 84.2433 35.7179 78.7996 29.0032 78.7996C22.2886 78.7996 16.8448 84.2433 16.8448 90.958C16.8448 97.6726 22.2886 103.116 29.0032 103.116C35.7179 103.116 41.1616 97.6726 41.1616 90.958ZM132.949 90.958C132.949 84.2433 127.506 78.7996 120.791 78.7996C114.076 78.7996 108.633 84.2433 108.633 90.958C108.633 97.6726 114.076 103.116 120.791 103.116C127.506 103.116 132.949 97.6726 132.949 90.958ZM82.0269 105.483C77.1934 106.89 72.6068 106.89 67.7702 105.483C67.8089 107.676 66.9815 109.816 65.9874 111.715C71.8716 114.638 77.9374 114.632 83.8128 111.715C82.8187 109.813 81.9912 107.676 82.0299 105.483H82.0269ZM70.7406 117.367C68.5768 117.578 64.9278 114.626 63.4188 114.471C62.5557 114.382 59.7668 115.953 58.5614 115.882C60.1954 118.757 63.0348 122.111 66.5797 121.975L70.7406 117.367ZM91.2358 115.882C90.0304 115.953 87.2415 114.382 86.3784 114.471C85.7176 114.54 83.5181 115.947 82.6163 116.319C81.4555 116.799 80.1846 116.971 79.0595 117.513L83.2205 121.977C86.7623 122.135 89.572 118.721 91.2388 115.885L91.2358 115.882ZM74.7914 118.87L70.4489 123.156C72.6752 125.9 77.1279 125.894 79.3482 123.156C78.5982 122.591 75.348 118.772 74.7914 118.87Z" fill="#19A0E6"></path>
  <path d="M92.4502 49.0359C93.4957 49.0359 94.3432 48.1884 94.3432 47.143C94.3432 46.0975 93.4957 45.25 92.4502 45.25C91.4048 45.25 90.5573 46.0975 90.5573 47.143C90.5573 48.1884 91.4048 49.0359 92.4502 49.0359Z" fill="#19A0E6"></path>
</svg>
